<svg id="wave" viewBox="0 0 1440 310" version="1.1" xmlns="http://www.w3.org/2000/svg"><path style="transform:translate(0, 0px); opacity:1" fill="#FFF" d="M0,31L60,51.7C120,72,240,114,360,129.2C480,145,600,134,720,118.8C840,103,960,83,1080,98.2C1200,114,1320,165,1440,160.2C1560,155,1680,93,1800,62C1920,31,2040,31,2160,31C2280,31,2400,31,2520,72.3C2640,114,2760,196,2880,191.2C3000,186,3120,93,3240,62C3360,31,3480,62,3600,67.2C3720,72,3840,52,3960,77.5C4080,103,4200,176,4320,180.8C4440,186,4560,124,4680,113.7C4800,103,4920,145,5040,170.5C5160,196,5280,207,5400,180.8C5520,155,5640,93,5760,77.5C5880,62,6000,93,6120,129.2C6240,165,6360,207,6480,191.2C6600,176,6720,103,6840,98.2C6960,93,7080,155,7200,175.7C7320,196,7440,176,7560,180.8C7680,186,7800,217,7920,237.7C8040,258,8160,269,8280,258.3C8400,248,8520,217,8580,201.5L8640,186L8640,310L8580,310C8520,310,8400,310,8280,310C8160,310,8040,310,7920,310C7800,310,7680,310,7560,310C7440,310,7320,310,7200,310C7080,310,6960,310,6840,310C6720,310,6600,310,6480,310C6360,310,6240,310,6120,310C6000,310,5880,310,5760,310C5640,310,5520,310,5400,310C5280,310,5160,310,5040,310C4920,310,4800,310,4680,310C4560,310,4440,310,4320,310C4200,310,4080,310,3960,310C3840,310,3720,310,3600,310C3480,310,3360,310,3240,310C3120,310,3000,310,2880,310C2760,310,2640,310,2520,310C2400,310,2280,310,2160,310C2040,310,1920,310,1800,310C1680,310,1560,310,1440,310C1320,310,1200,310,1080,310C960,310,840,310,720,310C600,310,480,310,360,310C240,310,120,310,60,310L0,310Z"/></svg>